<svg width="73" height="57" viewBox="0 0 73 57" fill="none" xmlns="http://www.w3.org/2000/svg">
<rect x="1.46" y="1.46" width="70.08" height="54.08" rx="7.3" fill="white" stroke="black" stroke-width="2.92"/>
<path d="M71.5 12.5H1" stroke="black" stroke-width="3"/>
<path d="M17.6906 28.5586C17.6711 28.5846 17.5962 28.6888 17.466 28.8711C17.3358 29.0534 17.16 29.2878 16.9387 29.5742C16.7238 29.8542 16.4699 30.1764 16.177 30.541C15.884 30.9056 15.5682 31.2799 15.2297 31.6641V35.7363C15.5682 36.0749 15.8807 36.4036 16.1672 36.7227C16.4602 37.0352 16.7141 37.3184 16.9289 37.5723C17.1437 37.8197 17.3163 38.0215 17.4465 38.1777C17.5767 38.334 17.6516 38.4219 17.6711 38.4414C17.7036 38.4935 17.7264 38.5456 17.7395 38.5977C17.759 38.6432 17.7687 38.6986 17.7687 38.7637C17.7687 38.9134 17.7167 39.0339 17.6125 39.125C17.5148 39.2161 17.4009 39.2617 17.2707 39.2617C17.1926 39.2617 17.1145 39.2454 17.0363 39.2129C16.9647 39.1803 16.9029 39.1283 16.8508 39.0566C16.8443 39.0566 16.7727 38.9753 16.6359 38.8125C16.5057 38.6432 16.3234 38.4251 16.0891 38.1582C15.8612 37.8913 15.5878 37.5885 15.2687 37.25C14.9562 36.9115 14.6145 36.5697 14.2434 36.2246C13.8788 35.873 13.4947 35.5312 13.091 35.1992C12.6939 34.8672 12.2935 34.5742 11.8898 34.3203C11.7987 34.2487 11.7368 34.1771 11.7043 34.1055C11.6717 34.0273 11.6555 33.9525 11.6555 33.8809C11.6555 33.8027 11.6717 33.7279 11.7043 33.6562C11.7434 33.5781 11.7922 33.5195 11.8508 33.4805C12.2479 33.1875 12.6451 32.849 13.0422 32.4648C13.4458 32.0742 13.8299 31.6771 14.1945 31.2734C14.5656 30.8698 14.9107 30.4727 15.2297 30.082C15.5487 29.6914 15.8254 29.3431 16.0598 29.0371C16.3007 28.7246 16.4895 28.474 16.6262 28.2852C16.7694 28.0898 16.8443 27.9889 16.8508 27.9824C16.8898 27.9108 16.9452 27.8555 17.0168 27.8164C17.0949 27.7773 17.1796 27.7578 17.2707 27.7578C17.4139 27.7578 17.5311 27.8164 17.6223 27.9336C17.7199 28.0443 17.7687 28.1582 17.7687 28.2754C17.7687 28.3926 17.7427 28.487 17.6906 28.5586ZM43.1773 26.8594C43.1773 26.9505 43.1513 27.0449 43.0992 27.1426C41.6604 29.4603 40.1077 31.7812 38.441 34.1055C36.7743 36.4232 34.971 38.7865 33.0309 41.1953C32.9072 41.332 32.7737 41.4004 32.6305 41.4004C32.4807 41.4004 32.357 41.3451 32.2594 41.2344C32.1617 41.1302 32.1129 41.013 32.1129 40.8828C32.1129 40.7786 32.1389 40.6842 32.191 40.5996C33.7926 38.1126 35.2249 35.7201 36.4879 33.4219C37.7509 31.1172 38.8674 28.8646 39.8375 26.6641C39.9417 26.4492 40.1012 26.3418 40.316 26.3418H42.65C42.7997 26.3418 42.9234 26.3971 43.0211 26.5078C43.1253 26.612 43.1773 26.7292 43.1773 26.8594ZM61.1004 34.3203C60.6902 34.5742 60.2833 34.8672 59.8797 35.1992C59.4826 35.5312 59.0984 35.873 58.7273 36.2246C58.3628 36.5697 58.021 36.9115 57.702 37.25C57.3829 37.5885 57.1063 37.8913 56.8719 38.1582C56.644 38.4251 56.4617 38.6432 56.325 38.8125C56.1883 38.9753 56.1199 39.0566 56.1199 39.0566C56.0288 39.1934 55.8953 39.2617 55.7195 39.2617C55.5698 39.2617 55.4461 39.2129 55.3484 39.1152C55.2508 39.0111 55.202 38.8939 55.202 38.7637C55.202 38.6465 55.241 38.5391 55.3191 38.4414C55.3322 38.4219 55.4005 38.334 55.5242 38.1777C55.6544 38.0215 55.827 37.8197 56.0418 37.5723C56.2566 37.3184 56.5105 37.0352 56.8035 36.7227C57.0965 36.4036 57.4155 36.0749 57.7605 35.7363V31.6641C57.422 31.2799 57.1063 30.9056 56.8133 30.541C56.5203 30.1764 56.2632 29.8542 56.0418 29.5742C55.8204 29.2878 55.6447 29.0534 55.5145 28.8711C55.3842 28.6888 55.3126 28.5846 55.2996 28.5586C55.2345 28.474 55.202 28.3796 55.202 28.2754C55.202 28.1257 55.254 28.002 55.3582 27.9043C55.4689 27.8066 55.5893 27.7578 55.7195 27.7578C55.9018 27.7578 56.0418 27.8327 56.1395 27.9824C56.1395 27.9889 56.2078 28.0898 56.3445 28.2852C56.4878 28.474 56.6766 28.7246 56.9109 29.0371C57.1453 29.3431 57.422 29.6914 57.741 30.082C58.06 30.4727 58.4018 30.8698 58.7664 31.2734C59.1375 31.6771 59.5216 32.0742 59.9188 32.4648C60.3224 32.849 60.7228 33.1875 61.1199 33.4805C61.1915 33.5195 61.2469 33.5781 61.2859 33.6562C61.325 33.7279 61.3445 33.8027 61.3445 33.8809C61.3445 33.972 61.3185 34.0566 61.2664 34.1348C61.2143 34.2064 61.159 34.2682 61.1004 34.3203Z" fill="black"/>
</svg>
