<svg width="75" height="75" viewBox="0 0 75 75" fill="none" xmlns="http://www.w3.org/2000/svg">
<path d="M37.5 75C58.2107 75 75 58.2107 75 37.5C75 16.7893 58.2107 0 37.5 0C16.7893 0 0 16.7893 0 37.5C0 58.2107 16.7893 75 37.5 75Z" fill="black"/>
<path d="M37.5 70C55.4493 70 70 55.4493 70 37.5C70 19.5507 55.4493 5 37.5 5C19.5507 5 5 19.5507 5 37.5C5 55.4493 19.5507 70 37.5 70Z" fill="white"/>
<path d="M34.0665 49.956C33.2985 50.508 32.3145 50.904 31.1145 51.144C29.9385 51.384 28.7265 51.504 27.4785 51.504C25.9665 51.504 24.5265 51.276 23.1585 50.82C21.8145 50.34 20.6265 49.584 19.5945 48.552C18.5625 47.496 17.7345 46.14 17.1105 44.484C16.5105 42.804 16.2105 40.776 16.2105 38.4C16.2105 35.928 16.5465 33.864 17.2185 32.208C17.9145 30.528 18.8025 29.184 19.8825 28.176C20.9865 27.144 22.2105 26.412 23.5545 25.98C24.8985 25.524 26.2425 25.296 27.5865 25.296C29.0265 25.296 30.2385 25.392 31.2225 25.584C32.2305 25.776 33.0585 26.004 33.7065 26.268L32.7345 30.444C32.1825 30.18 31.5225 29.988 30.7545 29.868C30.0105 29.748 29.0985 29.688 28.0185 29.688C26.0265 29.688 24.4185 30.396 23.1945 31.812C21.9945 33.228 21.3945 35.424 21.3945 38.4C21.3945 39.696 21.5385 40.884 21.8265 41.964C22.1145 43.02 22.5465 43.932 23.1225 44.7C23.7225 45.444 24.4545 46.032 25.3185 46.464C26.2065 46.872 27.2265 47.076 28.3785 47.076C29.4585 47.076 30.3705 46.968 31.1145 46.752C31.8585 46.536 32.5065 46.26 33.0585 45.924L34.0665 49.956ZM48.9413 40.596L49.5893 44.88H49.7693L50.4893 40.56L55.3133 25.8H60.4973L51.1373 51.18H47.6093L38.1773 25.8H43.9013L48.9413 40.596Z" fill="black"/>
</svg>
