<svg width="75" height="75" viewBox="0 0 75 75" fill="none" xmlns="http://www.w3.org/2000/svg">
<path d="M37.5 75C58.2107 75 75 58.2107 75 37.5C75 16.7893 58.2107 0 37.5 0C16.7893 0 0 16.7893 0 37.5C0 58.2107 16.7893 75 37.5 75Z" fill="black"/>
<path d="M37.5 70C55.4493 70 70 55.4493 70 37.5C70 19.5507 55.4493 5 37.5 5C19.5507 5 5 19.5507 5 37.5C5 55.4493 19.5507 70 37.5 70Z" fill="white"/>
<path d="M22.684 31.964H28.3V51.332H22.684V31.964ZM25.492 29.264C24.46 29.264 23.62 28.964 22.972 28.364C22.324 27.764 22 27.02 22 26.132C22 25.244 22.324 24.5 22.972 23.9C23.62 23.3 24.46 23 25.492 23C26.524 23 27.364 23.288 28.012 23.864C28.66 24.44 28.984 25.16 28.984 26.024C28.984 26.96 28.66 27.74 28.012 28.364C27.364 28.964 26.524 29.264 25.492 29.264ZM45.2841 31.676C47.6841 31.676 49.6161 32.396 51.0801 33.836C52.5681 35.276 53.3121 37.412 53.3121 40.244V51.332H47.6961V41.108C47.6961 39.572 47.3601 38.432 46.6881 37.688C46.0161 36.92 45.0441 36.536 43.7721 36.536C42.3561 36.536 41.2281 36.98 40.3881 37.868C39.5481 38.732 39.1281 40.028 39.1281 41.756V51.332H33.5121V31.964H38.8761V34.232C39.6201 33.416 40.5441 32.792 41.6481 32.36C42.7521 31.904 43.9641 31.676 45.2841 31.676Z" fill="black"/>
</svg>
